<svg xmlns="http://www.w3.org/2000/svg" viewBox="0 0 36 35.99951">
  <g id="Layer_2" data-name="Layer 2">
    <g id="twitter">
      <path d="M18,35.99951A17.99976,17.99976,0,1,1,36,18,18.02021,18.02021,0,0,1,18,35.99951ZM18,1A16.99976,16.99976,0,1,0,35,18,17.019,17.019,0,0,0,18,1Zm0,24.99976a8,8,0,1,1,8-8,8.00805,8.00805,0,0,1-8,8Zm6.747-6.906a10.01358,10.01358,0,0,0-4.256-.291,29.70036,29.70036,0,0,1,1.328,4.872,6.84476,6.84476,0,0,0,2.928-4.581Zm-4.078,5.206a28.4827,28.4827,0,0,0-1.456-5.181.36986.36986,0,0,0-.044.016,9.36742,9.36742,0,0,0-5.362,4.266,6.8151,6.8151,0,0,0,6.863.9h0Zm-7.747-1.722a10.85238,10.85238,0,0,1,5.553-4.509c.088-.028.178-.056.269-.081-.172-.388-.359-.778-.553-1.159a25.33716,25.33716,0,0,1-7.022.975c-.003.069-.003.138-.003.209a6.80584,6.80584,0,0,0,1.756,4.566h0Zm-1.609-5.969a25.6124,25.6124,0,0,0,6.319-.831,43.09231,43.09231,0,0,0-2.534-3.953,6.85416,6.85416,0,0,0-3.784,4.784h-.001Zm5.087-5.243a36.61239,36.61239,0,0,1,2.55,4,7.684,7.684,0,0,0,3.581-2.469A6.79865,6.79865,0,0,0,18,11.17476a7.07788,7.07788,0,0,0-1.6.191Zm6.891,2.325a9.12128,9.12128,0,0,1-3.816,2.694c.159.325.313.656.453.991.05.119.1.234.147.353a16.08006,16.08006,0,0,1,4.759.219,6.81554,6.81554,0,0,0-1.544-4.256h0Z" fill="#fff"/>
    </g>
  </g>
</svg>
