<svg xmlns="http://www.w3.org/2000/svg" viewBox="0 0 36 35.99951">
  <g id="Layer_2" data-name="Layer 2">
    <g id="twitter">
      <path d="M18,35.99951A17.99976,17.99976,0,1,1,36,18,18.02021,18.02021,0,0,1,18,35.99951ZM18,1A16.99976,16.99976,0,1,0,35,18,17.019,17.019,0,0,0,18,1Zm1.38189,12.39346H21.685V10.62968H19.38189a3.228,3.228,0,0,0-3.22441,3.22441V15.236H14.315v2.76378h1.84252v7.37007h2.76378V17.99976h2.30315L21.685,15.236H18.92126V13.85409A.46684.46684,0,0,1,19.38189,13.39346Z" fill="#fff"/>
    </g>
  </g>
</svg>
