<svg xmlns="http://www.w3.org/2000/svg" viewBox="0 0 36 36">
  <g id="Layer_2" data-name="Layer 2">
    <g id="Layer_1-2" data-name="Layer 1">
      <path d="M18,36A18,18,0,1,1,36,18,18.02094,18.02094,0,0,1,18,36ZM18,1A17,17,0,1,0,35,18,17.019,17.019,0,0,0,18,1Zm-2.08557,9.91332a5.05131,5.05131,0,0,0-3.32185,1.02423,3.34331,3.34331,0,0,0-1.19033,2.49139,2.94086,2.94086,0,0,0,3.09116,2.91585c.18587,0,.386-.019.59056-.03691a1.67772,1.67772,0,0,0-.18455.729,1.94819,1.94819,0,0,0,.55364,1.26415,8.01317,8.01317,0,0,0-3.55253.85814,2.675,2.675,0,0,0-1.43025,2.26993c0,1.3765,1.29831,2.65748,3.99545,2.65748,3.19957,0,4.89973-1.76715,4.89973-3.51562a3.24034,3.24034,0,0,0-1.56865-2.60212l-.66437-.526a1.01406,1.01406,0,0,1-.489-.79355,1.32048,1.32048,0,0,1,.526-.91351,3.14047,3.14047,0,0,0,1.55942-2.639v-.13841l-.00922-.12-.00923-.12918-.01846-.12-.02768-.11073-.01845-.11073-.02769-.11072-.0369-.1015-.03691-.10151-.03691-.1015-.03691-.09227-.04614-.09227-.04614-.08305-.04613-.08305-.05537-.083-.04613-.08305-.05537-.07382-.05536-.07382-.04614-.06459-.05536-.06459-.05537-.06459-.05536-.05537-.05537-.06459-.05536-.05536-.05536-.04614-.05537-.04613-.04614-.04614-.05536-.04614-.04614-.04613-.04613-.03691-.03691-.03691-.04614-.03691h1.15342l1.19033-.66437Zm6.66215,0v2.3622h-2.3622v.59055h2.3622v2.36221h.59055V13.86607h2.36221v-.59055H23.16713v-2.3622Zm-7.8248.609c1.54462,0,2.34375,2.08437,2.34375,3.42335v.1015l-.00923.03691v.12l-.00922.03691v.04614l-.00923.03691v.04613l-.00923.04614-.00923.03691-.00922.04614-.00923.04613-.00923.04614-.00923.04614-.01845.04613-.01846.04614-.00922.04614-.01846.04613-.02768.04614-.01845.04614-.01846.04613-.02768.04614-.02768.04614-.02769.04613-.02768.03691-.03691.04614-.02768.04614-.04614.03691-.03691.04613a1.899,1.899,0,0,1-1.26414.51674c-1.59979,0-2.3253-2.06675-2.3253-3.31263a2.15049,2.15049,0,0,1,.41523-1.37487A1.74179,1.74179,0,0,1,14.75178,11.52232Zm.90428,8.30463h.33219l.01845.00923h.06459l.01846.00922c1.41392,1.00485,2.03,1.50539,2.03,2.45448,0,1.15337-.95488,2.00234-2.74053,2.00234-1.99018,0-3.26649-.94954-3.26649-2.26993a2.07914,2.07914,0,0,1,1.59634-1.91007A7.36512,7.36512,0,0,1,15.65606,19.827Z" fill="#fff"/>
    </g>
  </g>
</svg>
