<svg xmlns="http://www.w3.org/2000/svg" viewBox="0 0 36 35.99951">
  <g id="Layer_2" data-name="Layer 2">
    <g id="twitter">
      <path d="M18,35.99951A17.99976,17.99976,0,1,1,36,18,18.02021,18.02021,0,0,1,18,35.99951ZM18,1A16.99976,16.99976,0,1,0,35,18,17.019,17.019,0,0,0,18,1Zm6.44882,9.06275H11.55118A1.49256,1.49256,0,0,0,10.063,11.55094V24.44857a1.49256,1.49256,0,0,0,1.48819,1.48819H24.44882A1.49256,1.49256,0,0,0,25.937,24.44857V11.55094A1.49256,1.49256,0,0,0,24.44882,10.06275Zm-3.47244,2.48031a.49752.49752,0,0,1,.49606-.49606h1.98425a.49752.49752,0,0,1,.49607.49606v1.98425a.49753.49753,0,0,1-.49607.49607H21.47244a.49752.49752,0,0,1-.49606-.49607ZM18,15.02338a2.97638,2.97638,0,1,1-2.97638,2.97638A2.97747,2.97747,0,0,1,18,15.02338Zm5.95276,8.43307h0a.49752.49752,0,0,1-.49607.49606H12.54331a.49752.49752,0,0,1-.49607-.49606h0V17.00763h1.09134a4.96063,4.96063,0,1,0,9.72284,0h1.09134Z" fill="#fff"/>
    </g>
  </g>
</svg>
