<svg xmlns="http://www.w3.org/2000/svg" viewBox="0 0 36 35.99951">
  <g id="Layer_2" data-name="Layer 2">
    <g id="twitter">
      <path d="M18,35.99951A17.99976,17.99976,0,1,1,36,18,18.02021,18.02021,0,0,1,18,35.99951ZM18,1A16.99976,16.99976,0,1,0,35,18,17.019,17.019,0,0,0,18,1Zm6.97856,12.671a5.63513,5.63513,0,0,1-1.6431.45,2.87922,2.87922,0,0,0,1.25936-1.58379,5.76221,5.76221,0,0,1-1.81752.69508,2.86674,2.86674,0,0,0-4.87871,2.61117,8.12935,8.12935,0,0,1-5.90084-2.99229A2.86609,2.86609,0,0,0,12.883,16.672a2.87891,2.87891,0,0,1-1.29774-.3567v.03576a2.86281,2.86281,0,0,0,2.2972,2.80739,2.8702,2.8702,0,0,1-.75527.10117,2.9885,2.9885,0,0,1-.53985-.05146,2.87167,2.87167,0,0,0,2.674,1.98933,5.7638,5.7638,0,0,1-4.2403,1.18523,8.144,8.144,0,0,0,12.53689-6.86019c0-.12558-.00262-.24768-.00785-.37065a5.74725,5.74725,0,0,0,1.42768-1.48Z" fill="#fff"/>
    </g>
  </g>
</svg>
