<svg xmlns="http://www.w3.org/2000/svg" viewBox="0 0 36 35.99951">
  <g id="Layer_2" data-name="Layer 2">
    <g id="twitter">
      <path d="M18,35.99951A17.99976,17.99976,0,1,1,36,18,18.02021,18.02021,0,0,1,18,35.99951ZM18,1A16.99976,16.99976,0,1,0,35,18,17.019,17.019,0,0,0,18,1Zm7.77528,13.82575a3.41619,3.41619,0,0,0-.632-1.57461,2.27269,2.27269,0,0,0-1.59048-.6727c-2.21952-.16173-5.55328-.16173-5.55328-.16173h-.006s-3.33276,0-5.55328.16173a2.27573,2.27573,0,0,0-1.59047.6727,3.39912,3.39912,0,0,0-.629,1.57461,24.14816,24.14816,0,0,0-.15776,2.57076V18.6a24.22229,24.22229,0,0,0,.15776,2.57076,3.44087,3.44087,0,0,0,.629,1.57559,2.7031,2.7031,0,0,0,1.7522.67866c1.271.12105,5.3985.15776,5.3985.15776s3.33672-.00595,5.55625-.16471a2.2712,2.2712,0,0,0,1.59048-.6727,3.41845,3.41845,0,0,0,.632-1.57559A24.1484,24.1484,0,0,0,25.937,18.599V17.39551a24.69428,24.69428,0,0,0-.16074-2.57076Zm-9.41983,5.23379V15.59767L20.64369,17.836Z" fill="#fff"/>
    </g>
  </g>
</svg>
